HIERARCHY
ROOT joint_Root
{
	OFFSET 0.0 0.0 0.0
	CHANNELS 6 Xposition Yposition Zposition Zrotation Xrotation Yrotation 
	JOINT Hips
	{
		OFFSET -0.726466 93.3139 -2.00062
		CHANNELS 6 Xposition Yposition Zposition Zrotation Xrotation Yrotation 
		JOINT Spine
		{
			OFFSET 15.7357 0.0 0.0
			CHANNELS 6 Xposition Yposition Zposition Zrotation Xrotation Yrotation 
			JOINT Chest
			{
				OFFSET 8.98455 -0.406207 0.0
				CHANNELS 6 Xposition Yposition Zposition Zrotation Xrotation Yrotation 
				JOINT Neck
				{
					OFFSET 16.3773 0.0 0.0
					CHANNELS 6 Xposition Yposition Zposition Zrotation Xrotation Yrotation 
					JOINT Head
					{
						OFFSET 6.45672 0.0 0.0
						CHANNELS 6 Xposition Yposition Zposition Zrotation Xrotation Yrotation 
						End Site
						{
							OFFSET 0.0 0.0 0.0
						}
					}
				}
				JOINT Shoulder_L
				{
					OFFSET 12.9942 -0.242716 4.98039
					CHANNELS 6 Xposition Yposition Zposition Zrotation Xrotation Yrotation 
					JOINT UpperArm_L
					{
						OFFSET 5.34809 0.0 0.0
						CHANNELS 6 Xposition Yposition Zposition Zrotation Xrotation Yrotation 
						JOINT LowerArm_L
						{
							OFFSET 24.3286 1.87007e-05 0.0
							CHANNELS 6 Xposition Yposition Zposition Zrotation Xrotation Yrotation 
							JOINT Hand_L
							{
								OFFSET 22.2916 0.0 0.0
								CHANNELS 6 Xposition Yposition Zposition Zrotation Xrotation Yrotation 
								End Site
								{
									OFFSET 0.0 0.0 0.0
								}
							}
						}
					}
				}
				JOINT Shoulder_R
				{
					OFFSET 12.9945 -0.242716 -4.98039
					CHANNELS 6 Xposition Yposition Zposition Zrotation Xrotation Yrotation 
					JOINT UpperArm_R
					{
						OFFSET -5.34813 0.0 0.0
						CHANNELS 6 Xposition Yposition Zposition Zrotation Xrotation Yrotation 
						JOINT LowerArm_R
						{
							OFFSET -24.3289 0.000322201 0.0
							CHANNELS 6 Xposition Yposition Zposition Zrotation Xrotation Yrotation 
							JOINT Hand_R
							{
								OFFSET -22.2915 -0.000108084 0.0
								CHANNELS 6 Xposition Yposition Zposition Zrotation Xrotation Yrotation 
								End Site
								{
									OFFSET 0.0 0.0 0.0
								}
							}
						}
					}
				}
			}
		}
		JOINT UpperLeg_L
		{
			OFFSET -2.19248 -6.46944 0.0
			CHANNELS 6 Xposition Yposition Zposition Zrotation Xrotation Yrotation 
			JOINT LowerLeg_L
			{
				OFFSET 39.0811 0.0 -1.23785e-05
				CHANNELS 6 Xposition Yposition Zposition Zrotation Xrotation Yrotation 
				JOINT Foot_L
				{
					OFFSET 40.9854 0.0 -1.26872e-05
					CHANNELS 6 Xposition Yposition Zposition Zrotation Xrotation Yrotation 
					JOINT Toes_L
					{
						OFFSET 11.7543 0.0 0.0
						CHANNELS 6 Xposition Yposition Zposition Zrotation Xrotation Yrotation 
						End Site
						{
							OFFSET 0.0 0.0 0.0
						}
					}
				}
			}
		}
		JOINT UpperLeg_R
		{
			OFFSET -2.19251 6.46944 0.0
			CHANNELS 6 Xposition Yposition Zposition Zrotation Xrotation Yrotation 
			JOINT LowerLeg_R
			{
				OFFSET -39.0811 -0.00228153 -0.0401928
				CHANNELS 6 Xposition Yposition Zposition Zrotation Xrotation Yrotation 
				JOINT Foot_R
				{
					OFFSET -40.9854 0.0 0.0
					CHANNELS 6 Xposition Yposition Zposition Zrotation Xrotation Yrotation 
					JOINT Toes_R
					{
						OFFSET -11.7543 0.0 0.0
						CHANNELS 6 Xposition Yposition Zposition Zrotation Xrotation Yrotation 
						End Site
						{
							OFFSET 0.0 0.0 0.0
						}
					}
				}
			}
		}
	}
}
MOTION
Frames:	6
Frame Time:	0.0333333
0.000000 0.000000 0.000000 0.000000 0.000000 -0.000000 0.136276 81.088700 -430.582000 86.295100 -2.205920 -4.914140 15.735700 0.000005 -0.000001 96.823400 79.066000 -94.364000 8.984550 -0.406207 -0.000000 13.904100 2.699850 4.591560 16.377300 -0.000001 -0.000001 2.941660 0.759147 -0.198721 6.456720 -0.000001 -0.000000 -4.181040 1.606020 0.552432 12.994200 -0.242716 4.980390 -88.590800 -3.427480 -67.632500 5.348090 -0.000007 -0.000001 -66.198600 29.399700 4.129400 24.328600 0.000019 0.000005 11.308800 12.897300 -41.858600 22.291600 -0.000001 0.000005 -5.345300 5.630430 -13.367600 12.994500 -0.242716 -4.980390 88.327000 4.199260 -68.254700 -5.348130 -0.000001 -0.000004 -47.038300 17.216300 -35.449400 -24.328900 0.000322 -0.000009 2.071480 1.006290 -64.127300 -22.291500 -0.000108 -0.000004 3.067370 5.486050 -5.982420 -2.192480 -6.469440 -0.000000 -174.324000 -7.169110 -39.851300 39.081100 -0.000007 -0.000012 -0.284511 -0.157837 119.023000 40.985400 -0.000006 -0.000013 9.586150 -4.160230 -46.970700 11.754300 -0.000000 0.000003 -0.007946 -0.087598 -20.143800 -2.192510 6.469440 -0.000001 -171.896000 14.159700 157.729000 -39.081100 -0.002282 -0.040193 0.142992 -0.077973 60.848900 -40.985400 0.000008 0.000006 7.190840 -4.535630 -89.373200 -11.754300 -0.000006 -0.000006 -1.553820 -1.779800 -20.814200
0.000000 0.000000 0.000000 0.000000 0.000000 -0.000000 0.724586 82.758800 -423.908000 88.407400 -5.079740 -6.035650 15.735700 0.000005 -0.000001 103.091000 79.442100 -101.865000 8.984550 -0.406207 -0.000000 12.782700 4.789280 1.916390 16.377300 -0.000001 -0.000001 2.856340 0.778402 0.214990 6.456720 -0.000001 -0.000000 -4.068170 0.306976 1.096190 12.994200 -0.242716 4.980390 -88.495500 -3.415930 -66.212900 5.348090 -0.000007 -0.000001 -66.666700 28.231700 10.770600 24.328600 0.000019 0.000005 8.385880 9.527690 -41.689000 22.291600 -0.000001 0.000005 -4.420840 5.633260 -13.584300 12.994500 -0.242716 -4.980390 88.914400 2.795120 -68.765400 -5.348130 -0.000001 -0.000004 -45.204400 16.071400 -40.444700 -24.328900 0.000322 -0.000009 1.524890 0.567391 -69.624800 -22.291500 -0.000108 -0.000004 3.223350 5.474780 -5.549820 -2.192480 -6.469440 -0.000000 -179.428000 -8.993880 -45.964100 39.081100 -0.000007 -0.000012 -0.271094 -0.122935 114.395000 40.985400 -0.000006 -0.000013 10.182100 -6.621500 -52.136100 11.754300 -0.000000 0.000003 -0.007206 -0.081436 -19.892200 -2.192510 6.469440 -0.000001 -176.781000 13.215000 164.796000 -39.081100 -0.002282 -0.040193 0.080396 -0.055842 54.108200 -40.985400 0.000008 0.000006 6.528720 -0.961166 -87.638800 -11.754300 -0.000006 -0.000006 -0.411306 -0.535149 -22.222700
0.000000 0.000000 0.000000 0.000000 0.000000 -0.000000 1.312260 85.761300 -416.896000 90.454300 -6.601240 -7.609200 15.735700 0.000005 -0.000001 106.964000 80.047800 -106.945000 8.984550 -0.406207 -0.000000 11.313100 5.762520 -0.534191 16.377300 -0.000001 -0.000001 2.928670 0.798950 0.326688 6.456720 -0.000001 -0.000000 -3.757030 -0.855267 1.737130 12.994200 -0.242716 4.980390 -87.950000 -4.417810 -65.076900 5.348090 -0.000007 -0.000001 -68.163700 26.166600 16.134800 24.328600 0.000019 0.000005 7.682030 8.561890 -42.176700 22.291600 -0.000001 0.000005 -4.655280 5.630300 -13.357800 12.994500 -0.242716 -4.980390 89.373200 1.623180 -68.881800 -5.348130 -0.000001 -0.000004 -44.742100 16.137200 -43.025000 -24.328900 0.000322 -0.000009 0.158960 0.049059 -73.088500 -22.291500 -0.000108 -0.000004 2.931440 5.474810 -5.551420 -2.192480 -6.469440 -0.000000 176.190000 -8.729400 -49.192100 39.081100 -0.000007 -0.000012 -0.200565 -0.045271 102.722000 40.985400 -0.000006 -0.000013 10.011100 -9.503810 -56.601900 11.754300 -0.000000 0.000003 -0.005487 -0.066108 -19.266900 -2.192510 6.469440 -0.000001 178.959000 12.049100 171.563000 -39.081100 -0.002282 -0.040193 0.045918 -0.043173 44.652600 -40.985400 0.000008 0.000006 5.867900 1.763900 -78.743600 -11.754300 -0.000006 -0.000006 -0.054439 -0.313250 -29.490400
0.000000 0.000000 0.000000 0.000000 0.000000 -0.000000 1.870900 89.339600 -409.903000 91.933300 -7.748010 -9.044850 15.735700 0.000005 -0.000001 109.575000 80.548900 -110.579000 8.984550 -0.406207 -0.000000 10.144500 6.271470 -2.565770 16.377300 -0.000001 -0.000001 2.905840 0.909809 0.268932 6.456720 -0.000001 -0.000000 -3.643750 -1.527960 2.296930 12.994200 -0.242716 4.980390 -87.325200 -5.625580 -64.518800 5.348090 -0.000007 -0.000001 -70.181300 24.160700 20.151400 24.328600 0.000019 0.000005 8.795820 9.533610 -43.052400 22.291600 -0.000001 0.000005 -4.973550 5.630520 -13.374900 12.994500 -0.242716 -4.980390 89.715400 0.748626 -69.187000 -5.348130 -0.000001 -0.000004 -45.876500 16.931900 -43.760800 -24.328900 0.000322 -0.000009 -0.532314 -0.149329 -74.278500 -22.291500 -0.000108 -0.000004 1.923350 5.474010 -5.520930 -2.192480 -6.469440 -0.000000 173.272000 -7.948560 -49.100800 39.081100 -0.000007 -0.000012 -0.097566 0.007539 85.586500 40.985400 -0.000006 -0.000013 9.872800 -12.434000 -59.794000 11.754300 -0.000000 0.000003 -0.005465 -0.065908 -19.258800 -2.192510 6.469440 -0.000001 175.545000 11.899900 176.558000 -39.081100 -0.002282 -0.040193 0.040155 -0.050960 35.883400 -40.985400 0.000008 0.000006 5.164380 4.513530 -62.902700 -11.754300 -0.000006 -0.000006 -0.156763 -0.567920 -40.634800
0.000000 0.000000 0.000000 0.000000 0.000000 -0.000000 2.173430 92.617900 -403.135000 91.901300 -8.597840 -10.353800 15.735700 0.000005 -0.000001 111.767000 80.854900 -113.312000 8.984550 -0.406207 -0.000000 9.361030 6.723520 -3.641860 16.377300 -0.000001 -0.000001 2.670280 1.247950 0.075019 6.456720 -0.000001 -0.000000 -4.004870 -2.010050 3.186580 12.994200 -0.242716 4.980390 -86.844400 -6.613650 -64.419900 5.348090 -0.000007 -0.000001 -72.107200 22.351000 22.795100 24.328600 0.000019 0.000005 8.562540 8.990800 -43.934300 22.291600 -0.000001 0.000005 -3.773630 5.630810 -13.396400 12.994500 -0.242716 -4.980390 89.863100 0.371079 -69.753100 -5.348130 -0.000001 -0.000004 -47.305000 18.125100 -43.539400 -24.328900 0.000322 -0.000009 -0.305606 -0.087842 -73.868100 -22.291500 -0.000108 -0.000004 2.007480 5.476830 -5.627060 -2.192480 -6.469440 -0.000000 173.011000 -7.367830 -45.844100 39.081100 -0.000007 -0.000012 -0.015620 0.007540 64.247600 40.985400 -0.000006 -0.000013 9.057950 -11.123300 -63.076800 11.754300 -0.000000 0.000003 -0.005936 -0.070260 -19.436200 -2.192510 6.469440 -0.000001 173.824000 13.101100 179.724000 -39.081100 -0.002282 -0.040193 0.054898 -0.093407 28.914100 -40.985400 0.000008 0.000006 3.901180 7.892130 -45.241300 -11.754300 -0.000006 -0.000006 -0.183792 -0.617478 -42.923700
0.000000 0.000000 0.000000 0.000000 0.000000 -0.000000 2.090710 94.493600 -396.185000 90.081000 -8.508900 -10.512400 15.735700 0.000005 -0.000001 113.584000 80.727400 -114.896000 8.984550 -0.406207 -0.000000 9.373700 7.360130 -3.229180 16.377300 -0.000001 -0.000001 2.467710 1.266910 -0.007593 6.456720 -0.000001 -0.000000 -4.539380 -2.372110 3.722820 12.994200 -0.242716 4.980390 -86.594200 -7.240920 -64.724600 5.348090 -0.000007 -0.000001 -73.210600 20.500800 23.768500 24.328600 0.000019 0.000005 8.607850 8.616960 -45.294200 22.291600 -0.000001 0.000005 -2.795290 5.629210 -13.278800 12.994500 -0.242716 -4.980390 89.899500 0.280618 -70.295300 -5.348130 -0.000001 -0.000004 -48.418400 19.340000 -42.130600 -24.328900 0.000322 -0.000009 0.231252 0.071215 -73.001300 -22.291500 -0.000108 -0.000004 2.873800 5.488900 -6.091780 -2.192480 -6.469440 -0.000000 175.529000 -6.715550 -39.497000 39.081100 -0.000007 -0.000012 0.009939 -0.011277 41.384000 40.985400 -0.000006 -0.000013 5.998960 -7.288200 -65.376300 11.754300 -0.000000 0.000003 -0.005545 -0.066657 -19.289300 -2.192510 6.469440 -0.000001 173.733000 13.967100 -177.427000 -39.081100 -0.002282 -0.040193 0.088302 -0.173703 26.072400 -40.985400 0.000008 0.000006 -2.063400 7.386790 -32.799000 -11.754300 -0.000006 -0.000006 -0.039528 -0.258222 -27.179000
